# xmcd CD database file
#
# Track frame offsets:
#	150
#	11454
#	23499
#	34124
#	41464
#	53373
#	73890
#	85507
#	97182
#	108970
#	118716
#	130311
#	142013
#
# Disc length: 1996 seconds
#
# Revision: 0
# Processed by: cddbd v1.5.1PL0 Copyright (c) Steve Scherf et al.
# Submitted via: CDex 1.51
#
DISCID=a307ca0d
DTITLE=Various Artist - Total Country CD 4
DYEAR=1900
DGENRE=Country
TTITLE0=ROGER MILLER - KING OF THE ROAD
TTITLE1=WAYLON JENNINGS - SALLY WAS A GOOD OLD GIRL
TTITLE2=CARL PERKINS - WHAT AM I LIVING FOR
TTITLE3=CONWAY TWITTY - TREAT ME MEAN,  TREAT ME CRUEL
TTITLE4=WILLIE NELSON - THE LAST LETTER
TTITLE5=GRAM PARSONS and EMMYLOU HARRIS - LOVE HURTS
TTITLE6=GLEN CAMPBELL - IT'S ONLY MAKE BELIEVE
TTITLE7=PATSY CLINE - I'VE LOVE AND LOST AGAIN
TTITLE8=FRANKIE LAINE - MULE TRAIN
TTITLE9=DONNA FARGO - STICKS AND STONES
TTITLE10=JOHNNY PAYCHECK - I DON'T NEED TO KNOW THAT RIGHT NOW
TTITLE11=GEORGE JONES - I CAN'T CHANGE OVERNIGHT
TTITLE12=DOLLY PARTON - PUPPY LOVE
EXTD=
EXTT0=
EXTT1=
EXTT2=
EXTT3=
EXTT4=
EXTT5=
EXTT6=
EXTT7=
EXTT8=
EXTT9=
EXTT10=
EXTT11=
EXTT12=
PLAYORDER=
